<svg xmlns="http://www.w3.org/2000/svg" width="47.444" height="33.002" viewBox="0.269 -0.268 47.444 33.002"><path d="M47.309 3.068a.095.095 0 0 0-.002 0c-.033-.002-.602-.025-.999.622a3.156 3.156 0 0 0-.034.057c-.363.62-.438 1.24-1.144 3.115a42.055 42.055 0 0 1-.095.25 8.622 8.622 0 0 0-.13.365c-.75 2.256-1.487 6.435-9.146 6.435-6.434 0-8.662-4.628-9.382-6.213a16.909 16.909 0 0 0-.168-.364 8.062 8.062 0 0 1-.004-.008c-.483-.991-1.16-2.87-2.215-2.87a1.137 1.137 0 0 0-.773.355c-.599.562-1.04 1.668-1.386 2.399a10.416 10.416 0 0 1-.06.124 3.89 3.89 0 0 0-.021.045c-.493 1.04-2.26 5.694-7.95 6.433a12.238 12.238 0 0 1-1.578.1c-8.08 0-8.457-4.651-9.272-6.79a5.78 5.78 0 0 0-.004-.011 40.785 40.785 0 0 1-.193-.512c-.616-1.673-.701-2.263-1.046-2.853a3.16 3.16 0 0 0-.035-.057 1.63 1.63 0 0 0-.092-.136c-.388-.508-.876-.488-.906-.487a.095.095 0 0 0-.002 0 3.76 3.76 0 0 1-.004-.016C.609 2.828.01.506.399-.044 13.565-1.02 22.151 1.503 23.99 1.51a6.202 6.202 0 0 0 .796-.078c2.889-.419 11.007-2.35 22.796-1.477a.55.55 0 0 1 .072.154c.23.738-.29 2.746-.341 2.942a3.59 3.59 0 0 1-.004.016ZM6.395 24.867c0 .664 1.019 2.277 1.067 1.945a.919.919 0 0 1 .02-.096c.092-.354.411-1.025.46-1.126a4.234 4.234 0 0 1 .006-.012.412.412 0 0 0 0 .005c-.01.111-.118 1.89 1.54 2.264a2.742 2.742 0 0 0 .353.055c2.541.23 3.492-4.462 5.311-6.426a4.285 4.285 0 0 1 .013-.013 4.216 4.216 0 0 1 1.419-1.006c2.81-1.21 6.596.846 7.484 3.673a4.263 4.263 0 0 1 .114.443 12.344 12.344 0 0 1 .093.51 14.97 14.97 0 0 1 .093-.51 5.56 5.56 0 0 1 2.48-3.413c1.87-1.232 4.38-1.55 6.148-.067a4.44 4.44 0 0 1 .39.37c1.827 1.956 2.775 6.67 5.323 6.439a2.609 2.609 0 0 0 .502-.094c1.477-.435 1.402-2.061 1.391-2.218a.688.688 0 0 0 0-.012s.418.864.481 1.212a.64.64 0 0 1 .004.022.08.08 0 0 0 .008.028c.11.19 1.036-1.294 1.06-1.949a.692.692 0 0 0 0-.024.589.589 0 0 1 .002-.057c.043-.432.666 2.068.337 3.945a5.523 5.523 0 0 1-.553 1.671c-1.576 2.941-5.592 2.58-8.566 1.592a15.95 15.95 0 0 1-.042-.014 45.332 45.332 0 0 1-1.39-.492c-2.357-.877-4.986-2.074-6.545-3.281a3.776 3.776 0 0 1-.496-.457 2.604 2.604 0 0 1-.627-1.183 2.535 2.535 0 0 1-.36.84c-.181.274-.43.541-.763.8a13.246 13.246 0 0 1-1.457.961c-1.684.976-3.855 1.888-5.752 2.561a44.283 44.283 0 0 1-.726.251 14.514 14.514 0 0 1-2.713.639c-2.484.322-5.007-.144-6.06-2.557a5.822 5.822 0 0 1-.389-1.33c-.33-1.89.303-4.407.339-3.938a.646.646 0 0 1 .001.049ZM32.706 1.529a3.259 3.259 0 0 0-.2.028c-.747.132-5.741.132-5.06 4.392a5.747 5.747 0 0 0 .012.074 8.758 8.758 0 0 0 1.214 3.308c1.257 1.939 3.398 3.04 6.642 3.253a18.513 18.513 0 0 0 1.216.039 10.499 10.499 0 0 0 2.013-.18c4.934-.964 4.77-5.586 4.934-8.072a16.778 16.778 0 0 1 .01-.148 4.155 4.155 0 0 0 .01-.191c.074-2.558-2.39-2.89-3.011-2.876-2.65.107-6.643.247-7.78.373Zm-17.344.028a3.796 3.796 0 0 0-.257-.034c-1.067-.11-4.245-.23-6.769-.329a803.245 803.245 0 0 1-.954-.038c-.628-.015-3.145.326-3.008 2.97a4.25 4.25 0 0 0 .006.097 23.782 23.782 0 0 1 .03.458c.151 2.748.186 7.54 6.154 7.918a12.264 12.264 0 0 0 .774.024c5.595 0 8.322-2.267 9.072-6.6.745-4.302-4.222-4.333-5.03-4.463a1.15 1.15 0 0 1-.018-.003ZM45.815.666a.686.686 0 0 0-.694.678.686.686 0 0 0 .694.678.686.686 0 0 0 .695-.678.686.686 0 0 0-.695-.678Zm-43.302 0a.686.686 0 0 0-.694.678c0 .374.31.678.694.678a.686.686 0 0 0 .694-.678.686.686 0 0 0-.694-.678Z" fill="rgba(68, 68, 68, 1)" fill-rule="evenodd" data-name="logo1"/></svg>